# xmcd CD database file
#
# Track frame offsets:
#	150
#	25665
#	64210
#	97665
#	123067
#	147020
#	175622
#	221212
#	254165
#
# Disc length: 3985 seconds
#
# Revision: 0
# Processed by: cddbd v1.5.1PL0 Copyright (c) Steve Scherf et al.
# Submitted via: CDex 1.51
#
DISCID=770f8f09
DTITLE=David "Fathead" Newman - Return to the Wide Open Spaces
DYEAR=1962
DGENRE=Jazz
TTITLE0=David "Fathead' Newman - Buster's Tune
TTITLE1=David "Fathead' Newman - Hard Times
TTITLE2=David "Fathead' Newman - 13th Floor
TTITLE3=David "Fathead' Newman - Things Ain't What They Used To Be
TTITLE4=David "Fathead' Newman - These Foolish Things
TTITLE5=David "Fathead' Newman - Two Bones and A Pick
TTITLE6=David "Fathead' Newman - City Lights
TTITLE7=David "Fathead' Newman - Lush Life
TTITLE8=David "Fathead' Newman - Night In Tunisia
EXTD=YEAR: 1962
EXTT0=
EXTT1=
EXTT2=
EXTT3=
EXTT4=
EXTT5=
EXTT6=
EXTT7=
EXTT8=
PLAYORDER=
